# xmcd
#
# Track frame offsets: 
#        150
#        17663
#        32862
#        50907
#        69988
#        90037
#        109054
#        125918
#        146459
#        164689
#
# Disc length: 2382 seconds
#
# Revision: 0
# Processed by: cddbd v1.5.2PL0 Copyright (c) Steve Scherf et al.
# Submitted via: ExactAudioCopyFreeDBPlugin 1.0
#
DISCID=88094c0a
DTITLE=Whitehouse Players - Whitehouse Players
DYEAR=2012
DGENRE=Country
TTITLE0=Willing
TTITLE1=Lonesome Highway
TTITLE2=Many Miles
TTITLE3=Love You Like Me
TTITLE4=Following
TTITLE5=Can't Hide Anymore
TTITLE6=Why
TTITLE7=Reminds Me of You
TTITLE8=Don't Hate on Me
TTITLE9=Always in My Heart
EXTD=
EXTT0=
EXTT1=
EXTT2=
EXTT3=
EXTT4=
EXTT5=
EXTT6=
EXTT7=
EXTT8=
EXTT9=
PLAYORDER=
